<svg width="32" height="33" viewBox="0 0 32 33" fill="none" xmlns="http://www.w3.org/2000/svg">
<mask id="mask0_12_2093" style="mask-type:luminance" maskUnits="userSpaceOnUse" x="0" y="0" width="32" height="33">
<rect y="0.5" width="32" height="32" fill="white"/>
</mask>
<g mask="url(#mask0_12_2093)">
<mask id="mask1_12_2093" style="mask-type:luminance" maskUnits="userSpaceOnUse" x="5" y="2" width="21" height="29">
<rect x="5" y="2.5" width="21" height="28" fill="white"/>
</mask>
<g mask="url(#mask1_12_2093)">
<path fill-rule="evenodd" clip-rule="evenodd" d="M22.4289 17.1947C22.418 15.1877 23.3258 13.6728 25.1633 12.5572C24.1352 11.0861 22.582 10.2767 20.5312 10.1181C18.5898 9.96502 16.468 11.2502 15.6914 11.2502C14.8711 11.2502 12.9898 10.1728 11.5133 10.1728C8.46172 10.222 5.21875 12.6064 5.21875 17.4572C5.21875 18.89 5.48125 20.3702 6.00625 21.8978C6.70625 23.9049 9.23281 28.8267 11.8688 28.7447C13.2469 28.7119 14.2203 27.7658 16.0141 27.7658C17.7531 27.7658 18.6555 28.7447 20.1922 28.7447C22.85 28.7064 25.1359 24.233 25.8031 22.2205C22.2375 20.5416 22.4289 17.2986 22.4289 17.1947L22.4289 17.1947ZM19.3336 8.21484C20.8266 6.44297 20.6898 4.82969 20.6461 4.25C19.3281 4.32656 17.8023 5.14688 16.9328 6.15859C15.9758 7.24141 15.4125 8.58125 15.5328 10.0906C16.9602 10.2 18.2617 9.46719 19.3336 8.21484Z" fill="black"/>
</g>
</g>
</svg>
