<svg width="32" height="33" viewBox="0 0 32 33" fill="none" xmlns="http://www.w3.org/2000/svg">
<mask id="mask0_12_2102" style="mask-type:luminance" maskUnits="userSpaceOnUse" x="0" y="0" width="32" height="33">
<rect y="0.5" width="32" height="32" fill="white"/>
</mask>
<g mask="url(#mask0_12_2102)">
<path fill-rule="evenodd" clip-rule="evenodd" d="M15.9997 3.83398C9.00408 3.83398 3.33303 9.50502 3.33301 16.5006C3.33299 23.4962 9.00402 29.1673 15.9996 29.1673C22.9952 29.1673 28.6663 23.4963 28.6663 16.5007C28.6663 9.50512 22.9953 3.83404 15.9997 3.83398H15.9997Z" fill="#039BE5"/>
<path fill-rule="evenodd" clip-rule="evenodd" d="M17.715 19.8565H20.993L21.5077 16.5265H17.7143V14.7065C17.7143 13.3232 18.1663 12.0965 19.4603 12.0965H21.5397V9.19054C21.1743 9.1412 20.4017 9.0332 18.9417 9.0332C15.893 9.0332 14.1057 10.6432 14.1057 14.3112V16.5265H10.9717V19.8565H14.1057V29.0092C14.7263 29.1025 15.355 29.1659 16.0003 29.1659C16.5837 29.1659 17.153 29.1125 17.715 29.0365V19.8565Z" fill="white"/>
</g>
</svg>
