<svg width="28" height="29" viewBox="0 0 28 29" fill="none" xmlns="http://www.w3.org/2000/svg">
<mask id="mask0_12_2085" style="mask-type:luminance" maskUnits="userSpaceOnUse" x="0" y="0" width="28" height="29">
<rect y="0.5" width="28" height="28" fill="white"/>
</mask>
<g mask="url(#mask0_12_2085)">
<path fill-rule="evenodd" clip-rule="evenodd" d="M25.4394 12.2138H24.4997V12.1654H13.9997V16.832H20.5931C19.6312 19.5486 17.0464 21.4987 13.9997 21.4987C10.1339 21.4987 6.99967 18.3644 6.99967 14.4987C6.99967 10.6329 10.1339 7.4987 13.9997 7.4987C15.7841 7.4987 17.4075 8.17186 18.6436 9.27145L21.9435 5.97153C19.8598 4.02961 17.0727 2.83203 13.9997 2.83203C7.55676 2.83203 2.33301 8.05578 2.33301 14.4987C2.33301 20.9416 7.55676 26.1654 13.9997 26.1654C20.4426 26.1654 25.6663 20.9416 25.6663 14.4987C25.6663 13.7164 25.5858 12.9529 25.4394 12.2138Z" fill="#FFC107"/>
<path fill-rule="evenodd" clip-rule="evenodd" d="M3.67871 9.06845L7.51179 11.8795C8.54896 9.3117 11.0608 7.4987 14.0002 7.4987C15.7846 7.4987 17.408 8.17187 18.6441 9.27145L21.944 5.97153C19.8604 4.02961 17.0732 2.83203 14.0002 2.83203C9.51905 2.83203 5.63288 5.36195 3.67871 9.06845Z" fill="#FF3D00"/>
<path fill-rule="evenodd" clip-rule="evenodd" d="M13.9995 26.1671C17.013 26.1671 19.7512 25.0138 21.8214 23.1384L18.2106 20.0829C17.0393 20.9702 15.5833 21.5004 13.9995 21.5004C10.965 21.5004 8.38845 19.5655 7.41778 16.8652L3.61328 19.7965C5.54411 23.5747 9.46528 26.1671 13.9995 26.1671Z" fill="#4CAF50"/>
<path fill-rule="evenodd" clip-rule="evenodd" d="M25.4398 12.2164H24.5V12.168H14V16.8346H20.5934C20.1314 18.1396 19.292 19.2648 18.2093 20.0844C18.2099 20.0838 18.2105 20.0838 18.2111 20.0832L21.8219 23.1387C21.5664 23.3709 25.6667 20.3346 25.6667 14.5013C25.6667 13.7191 25.5862 12.9555 25.4398 12.2164Z" fill="#1976D2"/>
</g>
</svg>
